<svg viewBox="-282.448 -1248.004 1667.053 1666.557" xmlns="http://www.w3.org/2000/svg">
  <g fill="none" stroke="rgb(2 132 199 / 1)" stroke-linecap="round" stroke-width="2">
    <path d="m-228.413-414.762-52 52" opacity=".97"/>
    <path d="m-176.413-414.762-52 52" opacity=".3"/>
    <path d="m-176.413-414.762 52 52" opacity=".12"/>
    <path d="m-124.413-414.762 52 52" opacity=".18"/>
    <path d="m-72.413-414.762 52 52" opacity=".31"/>
    <path d="m-20.413-414.762 52 52" opacity=".45"/>
    <path d="m31.587-414.762 52 52" opacity=".2"/>
    <path d="m135.587-414.762-52 52" opacity=".8"/>
    <path d="m187.587-414.762-52 52" opacity=".81"/>
    <path d="m239.587-414.762-52 52" opacity=".44"/>
    <path d="m239.587-414.762 52 52" opacity=".66"/>
    <path d="m343.587-414.762-52 52" opacity=".52"/>
    <path d="m343.587-414.762 52 52" opacity=".76"/>
    <path d="m447.587-414.762-52 52" opacity=".23"/>
    <path d="m499.587-414.762-52 52" opacity=".66"/>
    <path d="m551.587-414.762-52 52" opacity=".65"/>
    <path d="m-228.413-362.762-52 52" opacity=".56"/>
    <path d="m-228.413-362.762 52 52" opacity=".24"/>
    <path d="m-176.413-362.762 52 52" opacity=".42"/>
    <path d="m-72.413-362.762-52 52" opacity=".47"/>
    <path d="m-72.413-362.762 52 52" opacity=".38"/>
    <path d="m-20.413-362.762 52 52" opacity=".32"/>
    <path d="m83.587-362.762-52 52" opacity=".26"/>
    <path d="m135.587-362.762-52 52" opacity=".96"/>
    <path d="m187.587-362.762-52 52" opacity=".92"/>
    <path d="m187.587-362.762 52 52" opacity=".95"/>
    <path d="m239.587-362.762 52 52" opacity=".32"/>
    <path d="m343.587-362.762-52 52" opacity=".41"/>
    <path d="m343.587-362.762 52 52" opacity=".75"/>
    <path d="m447.587-362.762-52 52" opacity=".23"/>
    <path d="m447.587-362.762 52 52" opacity=".6"/>
    <path d="m551.587-362.762-52 52" opacity=".37"/>
    <path d="m-280.413-310.762 52 52" opacity=".43"/>
    <path d="m-228.413-310.762 52 52" opacity=".69"/>
    <path d="m-124.413-310.762-52 52" opacity=".43"/>
    <path d="m-124.413-310.762 52 52" opacity=".86"/>
    <path d="m-72.413-310.762 52 52" opacity=".88"/>
    <path d="m31.587-310.762-52 52" opacity=".8"/>
    <path d="m31.587-310.762 52 52" opacity=".57"/>
    <path d="m135.587-310.762-52 52" opacity=".2"/>
    <path d="m135.587-310.762 52 52" opacity=".99"/>
    <path d="m187.587-310.762 52 52" opacity=".23"/>
    <path d="m239.587-310.762 52 52" opacity=".19"/>
    <path d="m343.587-310.762-52 52" opacity=".43"/>
    <path d="m395.587-310.762-52 52" opacity=".84"/>
    <path d="m395.587-310.762 52 52" opacity=".38"/>
    <path d="m499.587-310.762-52 52" opacity=".68"/>
    <path d="m499.587-310.762 52 52" opacity=".98"/>
    <path d="m-280.413-258.762 52 52" opacity=".58"/>
    <path d="m-176.413-258.762-52 52" opacity=".13"/>
    <path d="m-124.413-258.762-52 52" opacity=".73"/>
    <path d="m-124.413-258.762 52 52" opacity=".36"/>
    <path d="m-72.413-258.762 52 52" opacity=".65"/>
    <path d="m-20.413-258.762 52 52" opacity=".94"/>
    <path d="m31.587-258.762 52 52" opacity=".19"/>
    <path d="m83.587-258.762 52 52" opacity=".36"/>
    <path d="m187.587-258.762-52 52" opacity=".93"/>
    <path d="m239.587-258.762-52 52" opacity=".55"/>
    <path d="m291.587-258.762-52 52" opacity=".34"/>
    <path d="m343.587-258.762-52 52" opacity=".92"/>
    <path d="m343.587-258.762 52 52" opacity=".45"/>
    <path d="m447.587-258.762-52 52" opacity=".47"/>
    <path d="m447.587-258.762 52 52" opacity=".3"/>
    <path d="m551.587-258.762-52 52" opacity=".15"/>
    <path d="m-228.413-206.762-52 52" opacity=".08"/>
    <path d="m-228.413-206.762 52 52" opacity=".45"/>
    <path d="m-124.413-206.762-52 52" opacity=".39"/>
    <path d="m-72.413-206.762-52 52" opacity=".64"/>
    <path d="m-72.413-206.762 52 52" opacity=".9"/>
    <path d="m31.587-206.762-52 52" opacity=".21"/>
    <path d="m31.587-206.762 52 52" opacity=".36"/>
    <path d="m83.587-206.762 52 52" opacity=".81"/>
    <path d="m187.587-206.762-52 52" opacity=".77"/>
    <path d="m239.587-206.762-52 52" opacity=".58"/>
    <path d="m239.587-206.762 52 52" opacity=".56"/>
    <path d="m343.587-206.762-52 52" opacity=".72"/>
    <path d="m343.587-206.762 52 52" opacity=".25"/>
    <path d="m447.587-206.762-52 52" opacity=".32"/>
    <path d="m447.587-206.762 52 52" opacity=".4"/>
    <path d="m551.587-206.762-52 52" opacity=".58"/>
    <path d="m-280.413-154.762 52 52" opacity=".68"/>
    <path d="m-176.413-154.762-52 52" opacity=".89"/>
    <path d="m-176.413-154.762 52 52" opacity=".46"/>
    <path d="m-124.413-154.762 52 52" opacity=".34"/>
    <path d="m-20.413-154.762-52 52" opacity=".26"/>
    <path d="m31.587-154.762-52 52" opacity=".39"/>
    <path d="m31.587-154.762 52 52" opacity=".26"/>
    <path d="m135.587-154.762-52 52" opacity=".75"/>
    <path d="m135.587-154.762 52 52" opacity=".82"/>
    <path d="m239.587-154.762-52 52" opacity=".26"/>
    <path d="m291.587-154.762-52 52" opacity=".79"/>
    <path d="m343.587-154.762-52 52" opacity=".5"/>
    <path d="m343.587-154.762 52 52" opacity=".1"/>
    <path d="m395.587-154.762 52 52" opacity=".74"/>
    <path d="m447.587-154.762 52 52" opacity=".57"/>
    <path d="m551.587-154.762-52 52" opacity=".24"/>
    <path d="m-280.413-102.762 52 52" opacity=".96"/>
    <path d="m-228.413-102.762 52 52" opacity=".77"/>
    <path d="m-124.413-102.762-52 52" opacity=".66"/>
    <path d="m-72.413-102.762-52 52"/>
    <path d="m-72.413-102.762 52 52" opacity=".9"/>
    <path d="m31.587-102.762-52 52" opacity=".95"/>
    <path d="m83.587-102.762-52 52" opacity=".83"/>
    <path d="m83.587-102.762 52 52" opacity=".73"/>
    <path d="m135.587-102.762 52 52" opacity=".24"/>
    <path d="m239.587-102.762-52 52" opacity=".47"/>
    <path d="m239.587-102.762 52 52" opacity=".52"/>
    <path d="m291.587-102.762 52 52" opacity=".49"/>
    <path d="m343.587-102.762 52 52" opacity=".28"/>
    <path d="m447.587-102.762-52 52" opacity=".54"/>
    <path d="m499.587-102.762-52 52" opacity=".9"/>
    <path d="m499.587-102.762 52 52" opacity=".69"/>
    <path d="m-228.413-50.762-52 52" opacity=".18"/>
    <path d="m-176.413-50.762-52 52" opacity=".53"/>
    <path d="m-176.413-50.762 52 52" opacity=".07"/>
    <path d="m-124.413-50.762 52 52" opacity=".95"/>
    <path d="m-72.413-50.762 52 52" opacity=".92"/>
    <path d="m-20.413-50.762 52 52" opacity=".12"/>
    <path d="m83.587-50.762-52 52" opacity=".35"/>
    <path d="m83.587-50.762 52 52" opacity=".96"/>
    <path d="m135.587-50.762 52 52" opacity=".65"/>
    <path d="m187.587-50.762 52 52" opacity=".86"/>
    <path d="m291.587-50.762-52 52" opacity=".54"/>
    <path d="m291.587-50.762 52 52" opacity=".26"/>
    <path d="m395.587-50.762-52 52" opacity=".24"/>
    <path d="m395.587-50.762 52 52" opacity=".32"/>
    <path d="m447.587-50.762 52 52" opacity=".45"/>
    <path d="m499.587-50.762 52 52" opacity=".84"/>
    <path d="m-280.413 1.238 52 52" opacity=".71"/>
    <path d="m-228.413 1.238 52 52" opacity=".93"/>
    <path d="m-124.413 1.238-52 52" opacity=".72"/>
    <path d="m-72.413 1.238-52 52" opacity=".83"/>
    <path d="m-72.413 1.238 52 52" opacity=".8"/>
    <path d="m31.587 1.238-52 52" opacity=".21"/>
    <path d="m31.587 1.238 52 52" opacity=".4"/>
    <path d="m83.587 1.238 52 52" opacity=".21"/>
    <path d="m187.587 1.238-52 52" opacity=".65"/>
    <path d="m187.587 1.238 52 52" opacity=".81"/>
    <path d="m291.587 1.238-52 52" opacity=".37"/>
    <path d="m343.587 1.238-52 52" opacity=".93"/>
    <path d="m343.587 1.238 52 52" opacity=".73"/>
    <path d="m447.587 1.238-52 52" opacity=".81"/>
    <path d="m499.587 1.238-52 52" opacity=".38"/>
    <path d="m499.587 1.238 52 52" opacity=".62"/>
    <path d="m-228.413 53.238-52 52" opacity=".63"/>
    <path d="m-176.413 53.238-52 52" opacity=".34"/>
    <path d="m-176.413 53.238 52 52" opacity=".47"/>
    <path d="m-72.413 53.238-52 52" opacity=".97"/>
    <path d="m-72.413 53.238 52 52" opacity=".91"/>
    <path d="m31.587 53.238-52 52" opacity=".45"/>
    <path d="m31.587 53.238 52 52" opacity=".6"/>
    <path d="m83.587 53.238 52 52" opacity=".63"/>
    <path d="m187.587 53.238-52 52" opacity=".94"/>
    <path d="m187.587 53.238 52 52" opacity=".13"/>
    <path d="m239.587 53.238 52 52" opacity=".89"/>
    <path d="m343.587 53.238-52 52" opacity=".18"/>
    <path d="m343.587 53.238 52 52" opacity=".76"/>
    <path d="m395.587 53.238 52 52" opacity=".12"/>
    <path d="m447.587 53.238 52 52" opacity=".4"/>
    <path d="m499.587 53.238 52 52" opacity=".91"/>
    <path d="m-228.413 105.238-52 52" opacity=".85"/>
    <path d="m-176.413 105.238-52 52" opacity=".42"/>
    <path d="m-124.413 105.238-52 52" opacity=".56"/>
    <path d="m-124.413 105.238 52 52" opacity=".81"/>
    <path d="m-72.413 105.238 52 52" opacity=".99"/>
    <path d="m-20.413 105.238 52 52" opacity=".51"/>
    <path d="m83.587 105.238-52 52" opacity=".15"/>
    <path d="m135.587 105.238-52 52" opacity=".5"/>
    <path d="m135.587 105.238 52 52" opacity=".65"/>
    <path d="m187.587 105.238 52 52" opacity=".53"/>
    <path d="m291.587 105.238-52 52" opacity=".74"/>
    <path d="m291.587 105.238 52 52" opacity=".4"/>
    <path d="m395.587 105.238-52 52" opacity=".82"/>
    <path d="m395.587 105.238 52 52" opacity=".21"/>
    <path d="m447.587 105.238 52 52" opacity=".67"/>
    <path d="m551.587 105.238-52 52" opacity=".45"/>
    <path d="m-228.413 157.238-52 52" opacity=".78"/>
    <path d="m-228.413 157.238 52 52" opacity=".62"/>
    <path d="m-176.413 157.238 52 52" opacity=".79"/>
    <path d="m-72.413 157.238-52 52" opacity=".2"/>
    <path d="m-72.413 157.238 52 52" opacity=".16"/>
    <path d="m-20.413 157.238 52 52" opacity=".09"/>
    <path d="m83.587 157.238-52 52" opacity=".57"/>
    <path d="m135.587 157.238-52 52" opacity=".52"/>
    <path d="m187.587 157.238-52 52" opacity=".15"/>
    <path d="m239.587 157.238-52 52" opacity=".17"/>
    <path d="m239.587 157.238 52 52" opacity=".11"/>
    <path d="m343.587 157.238-52 52" opacity=".15"/>
    <path d="m395.587 157.238-52 52" opacity=".16"/>
    <path d="m447.587 157.238-52 52" opacity=".59"/>
    <path d="m447.587 157.238 52 52" opacity=".73"/>
    <path d="m499.587 157.238 52 52" opacity=".6"/>
    <path d="m-228.413 209.238-52 52" opacity=".72"/>
    <path d="m-228.413 209.238 52 52" opacity=".98"/>
    <path d="m-124.413 209.238-52 52" opacity=".35"/>
    <path d="m-72.413 209.238-52 52" opacity=".5"/>
    <path d="m-72.413 209.238 52 52" opacity=".19"/>
    <path d="m-20.413 209.238 52 52" opacity=".68"/>
    <path d="m31.587 209.238 52 52" opacity=".19"/>
    <path d="m83.587 209.238 52 52" opacity=".41"/>
    <path d="m135.587 209.238 52 52" opacity=".91"/>
    <path d="m239.587 209.238-52 52" opacity=".54"/>
    <path d="m291.587 209.238-52 52" opacity=".69"/>
    <path d="m291.587 209.238 52 52" opacity=".31"/>
    <path d="m343.587 209.238 52 52" opacity=".7"/>
    <path d="m395.587 209.238 52 52" opacity=".99"/>
    <path d="m499.587 209.238-52 52" opacity=".18"/>
    <path d="m499.587 209.238 52 52" opacity=".75"/>
    <path d="m-280.413 261.238 52 52" opacity=".38"/>
    <path d="m-176.413 261.238-52 52" opacity=".39"/>
    <path d="m-176.413 261.238 52 52" opacity=".33"/>
    <path d="m-72.413 261.238-52 52" opacity=".81"/>
    <path d="m-72.413 261.238 52 52" opacity=".65"/>
    <path d="m-20.413 261.238 52 52" opacity=".54"/>
    <path d="m31.587 261.238 52 52" opacity=".86"/>
    <path d="m83.587 261.238 52 52" opacity=".67"/>
    <path d="m135.587 261.238 52 52" opacity=".58"/>
    <path d="m239.587 261.238-52 52" opacity=".14"/>
    <path d="m239.587 261.238 52 52" opacity=".78"/>
    <path d="m343.587 261.238-52 52" opacity=".41"/>
    <path d="m395.587 261.238-52 52" opacity=".53"/>
    <path d="m447.587 261.238-52 52" opacity=".76"/>
    <path d="m499.587 261.238-52 52" opacity=".39"/>
    <path d="m551.587 261.238-52 52" opacity=".44"/>
    <path d="m-280.413 313.238 52 52" opacity=".33"/>
    <path d="m-176.413 313.238-52 52" opacity=".68"/>
    <path d="m-176.413 313.238 52 52" opacity=".3"/>
    <path d="m-124.413 313.238 52 52" opacity=".29"/>
    <path d="m-20.413 313.238-52 52" opacity=".26"/>
    <path d="m31.587 313.238-52 52" opacity=".82"/>
    <path d="m83.587 313.238-52 52" opacity=".98"/>
    <path d="m83.587 313.238 52 52" opacity=".9"/>
    <path d="m187.587 313.238-52 52" opacity=".99"/>
    <path d="m187.587 313.238 52 52" opacity=".14"/>
    <path d="m291.587 313.238-52 52" opacity=".66"/>
    <path d="m343.587 313.238-52 52" opacity=".56"/>
    <path d="m343.587 313.238 52 52" opacity=".74"/>
    <path d="m447.587 313.238-52 52" opacity=".5"/>
    <path d="m499.587 313.238-52 52" opacity=".95"/>
    <path d="m499.587 313.238 52 52" opacity=".41"/>
    <path d="m-280.413 365.238 52 52" opacity=".83"/>
    <path d="m-228.413 365.238 52 52" opacity=".43"/>
    <path d="m-176.413 365.238 52 52" opacity=".71"/>
    <path d="m-124.413 365.238 52 52" opacity=".37"/>
    <path d="m-72.413 365.238 52 52" opacity=".1"/>
    <path d="m31.587 365.238-52 52" opacity=".7"/>
    <path d="m83.587 365.238-52 52" opacity=".89"/>
    <path d="m83.587 365.238 52 52" opacity=".33"/>
    <path d="m187.587 365.238-52 52" opacity=".48"/>
    <path d="m239.587 365.238-52 52" opacity=".92"/>
    <path d="m291.587 365.238-52 52" opacity=".17"/>
    <path d="m343.587 365.238-52 52" opacity=".69"/>
    <path d="m395.587 365.238-52 52" opacity=".26"/>
    <path d="m447.587 365.238-52 52" opacity=".38"/>
    <path d="m447.587 365.238 52 52" opacity=".23"/>
    <path d="m551.587 365.238-52 52" opacity=".81"/>
  </g>
  <g fill="none" stroke="rgb(2 132 199 / 1)" stroke-linecap="round" stroke-width="2">
    <path d="m603.64-414.857-52 52" opacity=".97"/>
    <path d="m655.64-414.857-52 52" opacity=".3"/>
    <path d="m655.64-414.857 52 52" opacity=".12"/>
    <path d="m707.64-414.857 52 52" opacity=".18"/>
    <path d="m759.64-414.857 52 52" opacity=".31"/>
    <path d="m811.64-414.857 52 52" opacity=".45"/>
    <path d="m863.64-414.857 52 52" opacity=".2"/>
    <path d="m967.64-414.857-52 52" opacity=".8"/>
    <path d="m1019.64-414.857-52 52" opacity=".81"/>
    <path d="m1071.64-414.857-52 52" opacity=".44"/>
    <path d="m1071.64-414.857 52 52" opacity=".66"/>
    <path d="m1175.64-414.857-52 52" opacity=".52"/>
    <path d="m1175.64-414.857 52 52" opacity=".76"/>
    <path d="m1279.64-414.857-52 52" opacity=".23"/>
    <path d="m1331.64-414.857-52 52" opacity=".66"/>
    <path d="m1383.64-414.857-52 52" opacity=".65"/>
    <path d="m603.64-362.857-52 52" opacity=".56"/>
    <path d="m603.64-362.857 52 52" opacity=".24"/>
    <path d="m655.64-362.857 52 52" opacity=".42"/>
    <path d="m759.64-362.857-52 52" opacity=".47"/>
    <path d="m759.64-362.857 52 52" opacity=".38"/>
    <path d="m811.64-362.857 52 52" opacity=".32"/>
    <path d="m915.64-362.857-52 52" opacity=".26"/>
    <path d="m967.64-362.857-52 52" opacity=".96"/>
    <path d="m1019.64-362.857-52 52" opacity=".92"/>
    <path d="m1019.64-362.857 52 52" opacity=".95"/>
    <path d="m1071.64-362.857 52 52" opacity=".32"/>
    <path d="m1175.64-362.857-52 52" opacity=".41"/>
    <path d="m1175.64-362.857 52 52" opacity=".75"/>
    <path d="m1279.64-362.857-52 52" opacity=".23"/>
    <path d="m1279.64-362.857 52 52" opacity=".6"/>
    <path d="m1383.64-362.857-52 52" opacity=".37"/>
    <path d="m551.64-310.857 52 52" opacity=".43"/>
    <path d="m603.64-310.857 52 52" opacity=".69"/>
    <path d="m707.64-310.857-52 52" opacity=".43"/>
    <path d="m707.64-310.857 52 52" opacity=".86"/>
    <path d="m759.64-310.857 52 52" opacity=".88"/>
    <path d="m863.64-310.857-52 52" opacity=".8"/>
    <path d="m863.64-310.857 52 52" opacity=".57"/>
    <path d="m967.64-310.857-52 52" opacity=".2"/>
    <path d="m967.64-310.857 52 52" opacity=".99"/>
    <path d="m1019.64-310.857 52 52" opacity=".23"/>
    <path d="m1071.64-310.857 52 52" opacity=".19"/>
    <path d="m1175.64-310.857-52 52" opacity=".43"/>
    <path d="m1227.64-310.857-52 52" opacity=".84"/>
    <path d="m1227.64-310.857 52 52" opacity=".38"/>
    <path d="m1331.64-310.857-52 52" opacity=".68"/>
    <path d="m1331.64-310.857 52 52" opacity=".98"/>
    <path d="m551.64-258.857 52 52" opacity=".58"/>
    <path d="m655.64-258.857-52 52" opacity=".13"/>
    <path d="m707.64-258.857-52 52" opacity=".73"/>
    <path d="m707.64-258.857 52 52" opacity=".36"/>
    <path d="m759.64-258.857 52 52" opacity=".65"/>
    <path d="m811.64-258.857 52 52" opacity=".94"/>
    <path d="m863.64-258.857 52 52" opacity=".19"/>
    <path d="m915.64-258.857 52 52" opacity=".36"/>
    <path d="m1019.64-258.857-52 52" opacity=".93"/>
    <path d="m1071.64-258.857-52 52" opacity=".55"/>
    <path d="m1123.64-258.857-52 52" opacity=".34"/>
    <path d="m1175.64-258.857-52 52" opacity=".92"/>
    <path d="m1175.64-258.857 52 52" opacity=".45"/>
    <path d="m1279.64-258.857-52 52" opacity=".47"/>
    <path d="m1279.64-258.857 52 52" opacity=".3"/>
    <path d="m1383.64-258.857-52 52" opacity=".15"/>
    <path d="m603.64-206.857-52 52" opacity=".08"/>
    <path d="m603.64-206.857 52 52" opacity=".45"/>
    <path d="m707.64-206.857-52 52" opacity=".39"/>
    <path d="m759.64-206.857-52 52" opacity=".64"/>
    <path d="m759.64-206.857 52 52" opacity=".9"/>
    <path d="m863.64-206.857-52 52" opacity=".21"/>
    <path d="m863.64-206.857 52 52" opacity=".36"/>
    <path d="m915.64-206.857 52 52" opacity=".81"/>
    <path d="m1019.64-206.857-52 52" opacity=".77"/>
    <path d="m1071.64-206.857-52 52" opacity=".58"/>
    <path d="m1071.64-206.857 52 52" opacity=".56"/>
    <path d="m1175.64-206.857-52 52" opacity=".72"/>
    <path d="m1175.64-206.857 52 52" opacity=".25"/>
    <path d="m1279.64-206.857-52 52" opacity=".32"/>
    <path d="m1279.64-206.857 52 52" opacity=".4"/>
    <path d="m1383.64-206.857-52 52" opacity=".58"/>
    <path d="m551.64-154.857 52 52" opacity=".68"/>
    <path d="m655.64-154.857-52 52" opacity=".89"/>
    <path d="m655.64-154.857 52 52" opacity=".46"/>
    <path d="m707.64-154.857 52 52" opacity=".34"/>
    <path d="m811.64-154.857-52 52" opacity=".26"/>
    <path d="m863.64-154.857-52 52" opacity=".39"/>
    <path d="m863.64-154.857 52 52" opacity=".26"/>
    <path d="m967.64-154.857-52 52" opacity=".75"/>
    <path d="m967.64-154.857 52 52" opacity=".82"/>
    <path d="m1071.64-154.857-52 52" opacity=".26"/>
    <path d="m1123.64-154.857-52 52" opacity=".79"/>
    <path d="m1175.64-154.857-52 52" opacity=".5"/>
    <path d="m1175.64-154.857 52 52" opacity=".1"/>
    <path d="m1227.64-154.857 52 52" opacity=".74"/>
    <path d="m1279.64-154.857 52 52" opacity=".57"/>
    <path d="m1383.64-154.857-52 52" opacity=".24"/>
    <path d="m551.64-102.857 52 52" opacity=".96"/>
    <path d="m603.64-102.857 52 52" opacity=".77"/>
    <path d="m707.64-102.857-52 52" opacity=".66"/>
    <path d="m759.64-102.857-52 52"/>
    <path d="m759.64-102.857 52 52" opacity=".9"/>
    <path d="m863.64-102.857-52 52" opacity=".95"/>
    <path d="m915.64-102.857-52 52" opacity=".83"/>
    <path d="m915.64-102.857 52 52" opacity=".73"/>
    <path d="m967.64-102.857 52 52" opacity=".24"/>
    <path d="m1071.64-102.857-52 52" opacity=".47"/>
    <path d="m1071.64-102.857 52 52" opacity=".52"/>
    <path d="m1123.64-102.857 52 52" opacity=".49"/>
    <path d="m1175.64-102.857 52 52" opacity=".28"/>
    <path d="m1279.64-102.857-52 52" opacity=".54"/>
    <path d="m1331.64-102.857-52 52" opacity=".9"/>
    <path d="m1331.64-102.857 52 52" opacity=".69"/>
    <path d="m603.64-50.857-52 52" opacity=".18"/>
    <path d="m655.64-50.857-52 52" opacity=".53"/>
    <path d="m655.64-50.857 52 52" opacity=".07"/>
    <path d="m707.64-50.857 52 52" opacity=".95"/>
    <path d="m759.64-50.857 52 52" opacity=".92"/>
    <path d="m811.64-50.857 52 52" opacity=".12"/>
    <path d="m915.64-50.857-52 52" opacity=".35"/>
    <path d="m915.64-50.857 52 52" opacity=".96"/>
    <path d="m967.64-50.857 52 52" opacity=".65"/>
    <path d="m1019.64-50.857 52 52" opacity=".86"/>
    <path d="m1123.64-50.857-52 52" opacity=".54"/>
    <path d="m1123.64-50.857 52 52" opacity=".26"/>
    <path d="m1227.64-50.857-52 52" opacity=".24"/>
    <path d="m1227.64-50.857 52 52" opacity=".32"/>
    <path d="m1279.64-50.857 52 52" opacity=".45"/>
    <path d="m1331.64-50.857 52 52" opacity=".84"/>
    <path d="m551.64 1.143 52 52" opacity=".71"/>
    <path d="m603.64 1.143 52 52" opacity=".93"/>
    <path d="m707.64 1.143-52 52" opacity=".72"/>
    <path d="m759.64 1.143-52 52" opacity=".83"/>
    <path d="m759.64 1.143 52 52" opacity=".8"/>
    <path d="m863.64 1.143-52 52" opacity=".21"/>
    <path d="m863.64 1.143 52 52" opacity=".4"/>
    <path d="m915.64 1.143 52 52" opacity=".21"/>
    <path d="m1019.64 1.143-52 52" opacity=".65"/>
    <path d="m1019.64 1.143 52 52" opacity=".81"/>
    <path d="m1123.64 1.143-52 52" opacity=".37"/>
    <path d="m1175.64 1.143-52 52" opacity=".93"/>
    <path d="m1175.64 1.143 52 52" opacity=".73"/>
    <path d="m1279.64 1.143-52 52" opacity=".81"/>
    <path d="m1331.64 1.143-52 52" opacity=".38"/>
    <path d="m1331.64 1.143 52 52" opacity=".62"/>
    <path d="m603.64 53.143-52 52" opacity=".63"/>
    <path d="m655.64 53.143-52 52" opacity=".34"/>
    <path d="m655.64 53.143 52 52" opacity=".47"/>
    <path d="m759.64 53.143-52 52" opacity=".97"/>
    <path d="m759.64 53.143 52 52" opacity=".91"/>
    <path d="m863.64 53.143-52 52" opacity=".45"/>
    <path d="m863.64 53.143 52 52" opacity=".6"/>
    <path d="m915.64 53.143 52 52" opacity=".63"/>
    <path d="m1019.64 53.143-52 52" opacity=".94"/>
    <path d="m1019.64 53.143 52 52" opacity=".13"/>
    <path d="m1071.64 53.143 52 52" opacity=".89"/>
    <path d="m1175.64 53.143-52 52" opacity=".18"/>
    <path d="m1175.64 53.143 52 52" opacity=".76"/>
    <path d="m1227.64 53.143 52 52" opacity=".12"/>
    <path d="m1279.64 53.143 52 52" opacity=".4"/>
    <path d="m1331.64 53.143 52 52" opacity=".91"/>
    <path d="m603.64 105.143-52 52" opacity=".85"/>
    <path d="m655.64 105.143-52 52" opacity=".42"/>
    <path d="m707.64 105.143-52 52" opacity=".56"/>
    <path d="m707.64 105.143 52 52" opacity=".81"/>
    <path d="m759.64 105.143 52 52" opacity=".99"/>
    <path d="m811.64 105.143 52 52" opacity=".51"/>
    <path d="m915.64 105.143-52 52" opacity=".15"/>
    <path d="m967.64 105.143-52 52" opacity=".5"/>
    <path d="m967.64 105.143 52 52" opacity=".65"/>
    <path d="m1019.64 105.143 52 52" opacity=".53"/>
    <path d="m1123.64 105.143-52 52" opacity=".74"/>
    <path d="m1123.64 105.143 52 52" opacity=".4"/>
    <path d="m1227.64 105.143-52 52" opacity=".82"/>
    <path d="m1227.64 105.143 52 52" opacity=".21"/>
    <path d="m1279.64 105.143 52 52" opacity=".67"/>
    <path d="m1383.64 105.143-52 52" opacity=".45"/>
    <path d="m603.64 157.143-52 52" opacity=".78"/>
    <path d="m603.64 157.143 52 52" opacity=".62"/>
    <path d="m655.64 157.143 52 52" opacity=".79"/>
    <path d="m759.64 157.143-52 52" opacity=".2"/>
    <path d="m759.64 157.143 52 52" opacity=".16"/>
    <path d="m811.64 157.143 52 52" opacity=".09"/>
    <path d="m915.64 157.143-52 52" opacity=".57"/>
    <path d="m967.64 157.143-52 52" opacity=".52"/>
    <path d="m1019.64 157.143-52 52" opacity=".15"/>
    <path d="m1071.64 157.143-52 52" opacity=".17"/>
    <path d="m1071.64 157.143 52 52" opacity=".11"/>
    <path d="m1175.64 157.143-52 52" opacity=".15"/>
    <path d="m1227.64 157.143-52 52" opacity=".16"/>
    <path d="m1279.64 157.143-52 52" opacity=".59"/>
    <path d="m1279.64 157.143 52 52" opacity=".73"/>
    <path d="m1331.64 157.143 52 52" opacity=".6"/>
    <path d="m603.64 209.143-52 52" opacity=".72"/>
    <path d="m603.64 209.143 52 52" opacity=".98"/>
    <path d="m707.64 209.143-52 52" opacity=".35"/>
    <path d="m759.64 209.143-52 52" opacity=".5"/>
    <path d="m759.64 209.143 52 52" opacity=".19"/>
    <path d="m811.64 209.143 52 52" opacity=".68"/>
    <path d="m863.64 209.143 52 52" opacity=".19"/>
    <path d="m915.64 209.143 52 52" opacity=".41"/>
    <path d="m967.64 209.143 52 52" opacity=".91"/>
    <path d="m1071.64 209.143-52 52" opacity=".54"/>
    <path d="m1123.64 209.143-52 52" opacity=".69"/>
    <path d="m1123.64 209.143 52 52" opacity=".31"/>
    <path d="m1175.64 209.143 52 52" opacity=".7"/>
    <path d="m1227.64 209.143 52 52" opacity=".99"/>
    <path d="m1331.64 209.143-52 52" opacity=".18"/>
    <path d="m1331.64 209.143 52 52" opacity=".75"/>
    <path d="m551.64 261.143 52 52" opacity=".38"/>
    <path d="m655.64 261.143-52 52" opacity=".39"/>
    <path d="m655.64 261.143 52 52" opacity=".33"/>
    <path d="m759.64 261.143-52 52" opacity=".81"/>
    <path d="m759.64 261.143 52 52" opacity=".65"/>
    <path d="m811.64 261.143 52 52" opacity=".54"/>
    <path d="m863.64 261.143 52 52" opacity=".86"/>
    <path d="m915.64 261.143 52 52" opacity=".67"/>
    <path d="m967.64 261.143 52 52" opacity=".58"/>
    <path d="m1071.64 261.143-52 52" opacity=".14"/>
    <path d="m1071.64 261.143 52 52" opacity=".78"/>
    <path d="m1175.64 261.143-52 52" opacity=".41"/>
    <path d="m1227.64 261.143-52 52" opacity=".53"/>
    <path d="m1279.64 261.143-52 52" opacity=".76"/>
    <path d="m1331.64 261.143-52 52" opacity=".39"/>
    <path d="m1383.64 261.143-52 52" opacity=".44"/>
    <path d="m551.64 313.143 52 52" opacity=".33"/>
    <path d="m655.64 313.143-52 52" opacity=".68"/>
    <path d="m655.64 313.143 52 52" opacity=".3"/>
    <path d="m707.64 313.143 52 52" opacity=".29"/>
    <path d="m811.64 313.143-52 52" opacity=".26"/>
    <path d="m863.64 313.143-52 52" opacity=".82"/>
    <path d="m915.64 313.143-52 52" opacity=".98"/>
    <path d="m915.64 313.143 52 52" opacity=".9"/>
    <path d="m1019.64 313.143-52 52" opacity=".99"/>
    <path d="m1019.64 313.143 52 52" opacity=".14"/>
    <path d="m1123.64 313.143-52 52" opacity=".66"/>
    <path d="m1175.64 313.143-52 52" opacity=".56"/>
    <path d="m1175.64 313.143 52 52" opacity=".74"/>
    <path d="m1279.64 313.143-52 52" opacity=".5"/>
    <path d="m1331.64 313.143-52 52" opacity=".95"/>
    <path d="m1331.64 313.143 52 52" opacity=".41"/>
    <path d="m551.64 365.143 52 52" opacity=".83"/>
    <path d="m603.64 365.143 52 52" opacity=".43"/>
    <path d="m655.64 365.143 52 52" opacity=".71"/>
    <path d="m707.64 365.143 52 52" opacity=".37"/>
    <path d="m759.64 365.143 52 52" opacity=".1"/>
    <path d="m863.64 365.143-52 52" opacity=".7"/>
    <path d="m915.64 365.143-52 52" opacity=".89"/>
    <path d="m915.64 365.143 52 52" opacity=".33"/>
    <path d="m1019.64 365.143-52 52" opacity=".48"/>
    <path d="m1071.64 365.143-52 52" opacity=".92"/>
    <path d="m1123.64 365.143-52 52" opacity=".17"/>
    <path d="m1175.64 365.143-52 52" opacity=".69"/>
    <path d="m1227.64 365.143-52 52" opacity=".26"/>
    <path d="m1279.64 365.143-52 52" opacity=".38"/>
    <path d="m1279.64 365.143 52 52" opacity=".23"/>
    <path d="m1383.64 365.143-52 52" opacity=".81"/>
  </g>
  <g fill="none" stroke="rgb(2 132 199 / 1)" stroke-linecap="round" stroke-width="2">
    <path d="m-228.664-1246.875-52 52" opacity=".97"/>
    <path d="m-176.664-1246.875-52 52" opacity=".3"/>
    <path d="m-176.664-1246.875 52 52" opacity=".12"/>
    <path d="m-124.664-1246.875 52 52" opacity=".18"/>
    <path d="m-72.664-1246.875 52 52" opacity=".31"/>
    <path d="m-20.664-1246.875 52 52" opacity=".45"/>
    <path d="m31.336-1246.875 52 52" opacity=".2"/>
    <path d="m135.336-1246.875-52 52" opacity=".8"/>
    <path d="m187.336-1246.875-52 52" opacity=".81"/>
    <path d="m239.336-1246.875-52 52" opacity=".44"/>
    <path d="m239.336-1246.875 52 52" opacity=".66"/>
    <path d="m343.336-1246.875-52 52" opacity=".52"/>
    <path d="m343.336-1246.875 52 52" opacity=".76"/>
    <path d="m447.336-1246.875-52 52" opacity=".23"/>
    <path d="m499.336-1246.875-52 52" opacity=".66"/>
    <path d="m551.336-1246.875-52 52" opacity=".65"/>
    <path d="m-228.664-1194.875-52 52" opacity=".56"/>
    <path d="m-228.664-1194.875 52 52" opacity=".24"/>
    <path d="m-176.664-1194.875 52 52" opacity=".42"/>
    <path d="m-72.664-1194.875-52 52" opacity=".47"/>
    <path d="m-72.664-1194.875 52 52" opacity=".38"/>
    <path d="m-20.664-1194.875 52 52" opacity=".32"/>
    <path d="m83.336-1194.875-52 52" opacity=".26"/>
    <path d="m135.336-1194.875-52 52" opacity=".96"/>
    <path d="m187.336-1194.875-52 52" opacity=".92"/>
    <path d="m187.336-1194.875 52 52" opacity=".95"/>
    <path d="m239.336-1194.875 52 52" opacity=".32"/>
    <path d="m343.336-1194.875-52 52" opacity=".41"/>
    <path d="m343.336-1194.875 52 52" opacity=".75"/>
    <path d="m447.336-1194.875-52 52" opacity=".23"/>
    <path d="m447.336-1194.875 52 52" opacity=".6"/>
    <path d="m551.336-1194.875-52 52" opacity=".37"/>
    <path d="m-280.664-1142.875 52 52" opacity=".43"/>
    <path d="m-228.664-1142.875 52 52" opacity=".69"/>
    <path d="m-124.664-1142.875-52 52" opacity=".43"/>
    <path d="m-124.664-1142.875 52 52" opacity=".86"/>
    <path d="m-72.664-1142.875 52 52" opacity=".88"/>
    <path d="m31.336-1142.875-52 52" opacity=".8"/>
    <path d="m31.336-1142.875 52 52" opacity=".57"/>
    <path d="m135.336-1142.875-52 52" opacity=".2"/>
    <path d="m135.336-1142.875 52 52" opacity=".99"/>
    <path d="m187.336-1142.875 52 52" opacity=".23"/>
    <path d="m239.336-1142.875 52 52" opacity=".19"/>
    <path d="m343.336-1142.875-52 52" opacity=".43"/>
    <path d="m395.336-1142.875-52 52" opacity=".84"/>
    <path d="m395.336-1142.875 52 52" opacity=".38"/>
    <path d="m499.336-1142.875-52 52" opacity=".68"/>
    <path d="m499.336-1142.875 52 52" opacity=".98"/>
    <path d="m-280.664-1090.875 52 52" opacity=".58"/>
    <path d="m-176.664-1090.875-52 52" opacity=".13"/>
    <path d="m-124.664-1090.875-52 52" opacity=".73"/>
    <path d="m-124.664-1090.875 52 52" opacity=".36"/>
    <path d="m-72.664-1090.875 52 52" opacity=".65"/>
    <path d="m-20.664-1090.875 52 52" opacity=".94"/>
    <path d="m31.336-1090.875 52 52" opacity=".19"/>
    <path d="m83.336-1090.875 52 52" opacity=".36"/>
    <path d="m187.336-1090.875-52 52" opacity=".93"/>
    <path d="m239.336-1090.875-52 52" opacity=".55"/>
    <path d="m291.336-1090.875-52 52" opacity=".34"/>
    <path d="m343.336-1090.875-52 52" opacity=".92"/>
    <path d="m343.336-1090.875 52 52" opacity=".45"/>
    <path d="m447.336-1090.875-52 52" opacity=".47"/>
    <path d="m447.336-1090.875 52 52" opacity=".3"/>
    <path d="m551.336-1090.875-52 52" opacity=".15"/>
    <path d="m-228.664-1038.875-52 52" opacity=".08"/>
    <path d="m-228.664-1038.875 52 52" opacity=".45"/>
    <path d="m-124.664-1038.875-52 52" opacity=".39"/>
    <path d="m-72.664-1038.875-52 52" opacity=".64"/>
    <path d="m-72.664-1038.875 52 52" opacity=".9"/>
    <path d="m31.336-1038.875-52 52" opacity=".21"/>
    <path d="m31.336-1038.875 52 52" opacity=".36"/>
    <path d="m83.336-1038.875 52 52" opacity=".81"/>
    <path d="m187.336-1038.875-52 52" opacity=".77"/>
    <path d="m239.336-1038.875-52 52" opacity=".58"/>
    <path d="m239.336-1038.875 52 52" opacity=".56"/>
    <path d="m343.336-1038.875-52 52" opacity=".72"/>
    <path d="m343.336-1038.875 52 52" opacity=".25"/>
    <path d="m447.336-1038.875-52 52" opacity=".32"/>
    <path d="m447.336-1038.875 52 52" opacity=".4"/>
    <path d="m551.336-1038.875-52 52" opacity=".58"/>
    <path d="m-280.664-986.875 52 52" opacity=".68"/>
    <path d="m-176.664-986.875-52 52" opacity=".89"/>
    <path d="m-176.664-986.875 52 52" opacity=".46"/>
    <path d="m-124.664-986.875 52 52" opacity=".34"/>
    <path d="m-20.664-986.875-52 52" opacity=".26"/>
    <path d="m31.336-986.875-52 52" opacity=".39"/>
    <path d="m31.336-986.875 52 52" opacity=".26"/>
    <path d="m135.336-986.875-52 52" opacity=".75"/>
    <path d="m135.336-986.875 52 52" opacity=".82"/>
    <path d="m239.336-986.875-52 52" opacity=".26"/>
    <path d="m291.336-986.875-52 52" opacity=".79"/>
    <path d="m343.336-986.875-52 52" opacity=".5"/>
    <path d="m343.336-986.875 52 52" opacity=".1"/>
    <path d="m395.336-986.875 52 52" opacity=".74"/>
    <path d="m447.336-986.875 52 52" opacity=".57"/>
    <path d="m551.336-986.875-52 52" opacity=".24"/>
    <path d="m-280.664-934.875 52 52" opacity=".96"/>
    <path d="m-228.664-934.875 52 52" opacity=".77"/>
    <path d="m-124.664-934.875-52 52" opacity=".66"/>
    <path d="m-72.664-934.875-52 52"/>
    <path d="m-72.664-934.875 52 52" opacity=".9"/>
    <path d="m31.336-934.875-52 52" opacity=".95"/>
    <path d="m83.336-934.875-52 52" opacity=".83"/>
    <path d="m83.336-934.875 52 52" opacity=".73"/>
    <path d="m135.336-934.875 52 52" opacity=".24"/>
    <path d="m239.336-934.875-52 52" opacity=".47"/>
    <path d="m239.336-934.875 52 52" opacity=".52"/>
    <path d="m291.336-934.875 52 52" opacity=".49"/>
    <path d="m343.336-934.875 52 52" opacity=".28"/>
    <path d="m447.336-934.875-52 52" opacity=".54"/>
    <path d="m499.336-934.875-52 52" opacity=".9"/>
    <path d="m499.336-934.875 52 52" opacity=".69"/>
    <path d="m-228.664-882.875-52 52" opacity=".18"/>
    <path d="m-176.664-882.875-52 52" opacity=".53"/>
    <path d="m-176.664-882.875 52 52" opacity=".07"/>
    <path d="m-124.664-882.875 52 52" opacity=".95"/>
    <path d="m-72.664-882.875 52 52" opacity=".92"/>
    <path d="m-20.664-882.875 52 52" opacity=".12"/>
    <path d="m83.336-882.875-52 52" opacity=".35"/>
    <path d="m83.336-882.875 52 52" opacity=".96"/>
    <path d="m135.336-882.875 52 52" opacity=".65"/>
    <path d="m187.336-882.875 52 52" opacity=".86"/>
    <path d="m291.336-882.875-52 52" opacity=".54"/>
    <path d="m291.336-882.875 52 52" opacity=".26"/>
    <path d="m395.336-882.875-52 52" opacity=".24"/>
    <path d="m395.336-882.875 52 52" opacity=".32"/>
    <path d="m447.336-882.875 52 52" opacity=".45"/>
    <path d="m499.336-882.875 52 52" opacity=".84"/>
    <path d="m-280.664-830.875 52 52" opacity=".71"/>
    <path d="m-228.664-830.875 52 52" opacity=".93"/>
    <path d="m-124.664-830.875-52 52" opacity=".72"/>
    <path d="m-72.664-830.875-52 52" opacity=".83"/>
    <path d="m-72.664-830.875 52 52" opacity=".8"/>
    <path d="m31.336-830.875-52 52" opacity=".21"/>
    <path d="m31.336-830.875 52 52" opacity=".4"/>
    <path d="m83.336-830.875 52 52" opacity=".21"/>
    <path d="m187.336-830.875-52 52" opacity=".65"/>
    <path d="m187.336-830.875 52 52" opacity=".81"/>
    <path d="m291.336-830.875-52 52" opacity=".37"/>
    <path d="m343.336-830.875-52 52" opacity=".93"/>
    <path d="m343.336-830.875 52 52" opacity=".73"/>
    <path d="m447.336-830.875-52 52" opacity=".81"/>
    <path d="m499.336-830.875-52 52" opacity=".38"/>
    <path d="m499.336-830.875 52 52" opacity=".62"/>
    <path d="m-228.664-778.875-52 52" opacity=".63"/>
    <path d="m-176.664-778.875-52 52" opacity=".34"/>
    <path d="m-176.664-778.875 52 52" opacity=".47"/>
    <path d="m-72.664-778.875-52 52" opacity=".97"/>
    <path d="m-72.664-778.875 52 52" opacity=".91"/>
    <path d="m31.336-778.875-52 52" opacity=".45"/>
    <path d="m31.336-778.875 52 52" opacity=".6"/>
    <path d="m83.336-778.875 52 52" opacity=".63"/>
    <path d="m187.336-778.875-52 52" opacity=".94"/>
    <path d="m187.336-778.875 52 52" opacity=".13"/>
    <path d="m239.336-778.875 52 52" opacity=".89"/>
    <path d="m343.336-778.875-52 52" opacity=".18"/>
    <path d="m343.336-778.875 52 52" opacity=".76"/>
    <path d="m395.336-778.875 52 52" opacity=".12"/>
    <path d="m447.336-778.875 52 52" opacity=".4"/>
    <path d="m499.336-778.875 52 52" opacity=".91"/>
    <path d="m-228.664-726.875-52 52" opacity=".85"/>
    <path d="m-176.664-726.875-52 52" opacity=".42"/>
    <path d="m-124.664-726.875-52 52" opacity=".56"/>
    <path d="m-124.664-726.875 52 52" opacity=".81"/>
    <path d="m-72.664-726.875 52 52" opacity=".99"/>
    <path d="m-20.664-726.875 52 52" opacity=".51"/>
    <path d="m83.336-726.875-52 52" opacity=".15"/>
    <path d="m135.336-726.875-52 52" opacity=".5"/>
    <path d="m135.336-726.875 52 52" opacity=".65"/>
    <path d="m187.336-726.875 52 52" opacity=".53"/>
    <path d="m291.336-726.875-52 52" opacity=".74"/>
    <path d="m291.336-726.875 52 52" opacity=".4"/>
    <path d="m395.336-726.875-52 52" opacity=".82"/>
    <path d="m395.336-726.875 52 52" opacity=".21"/>
    <path d="m447.336-726.875 52 52" opacity=".67"/>
    <path d="m551.336-726.875-52 52" opacity=".45"/>
    <path d="m-228.664-674.875-52 52" opacity=".78"/>
    <path d="m-228.664-674.875 52 52" opacity=".62"/>
    <path d="m-176.664-674.875 52 52" opacity=".79"/>
    <path d="m-72.664-674.875-52 52" opacity=".2"/>
    <path d="m-72.664-674.875 52 52" opacity=".16"/>
    <path d="m-20.664-674.875 52 52" opacity=".09"/>
    <path d="m83.336-674.875-52 52" opacity=".57"/>
    <path d="m135.336-674.875-52 52" opacity=".52"/>
    <path d="m187.336-674.875-52 52" opacity=".15"/>
    <path d="m239.336-674.875-52 52" opacity=".17"/>
    <path d="m239.336-674.875 52 52" opacity=".11"/>
    <path d="m343.336-674.875-52 52" opacity=".15"/>
    <path d="m395.336-674.875-52 52" opacity=".16"/>
    <path d="m447.336-674.875-52 52" opacity=".59"/>
    <path d="m447.336-674.875 52 52" opacity=".73"/>
    <path d="m499.336-674.875 52 52" opacity=".6"/>
    <path d="m-228.664-622.875-52 52" opacity=".72"/>
    <path d="m-228.664-622.875 52 52" opacity=".98"/>
    <path d="m-124.664-622.875-52 52" opacity=".35"/>
    <path d="m-72.664-622.875-52 52" opacity=".5"/>
    <path d="m-72.664-622.875 52 52" opacity=".19"/>
    <path d="m-20.664-622.875 52 52" opacity=".68"/>
    <path d="m31.336-622.875 52 52" opacity=".19"/>
    <path d="m83.336-622.875 52 52" opacity=".41"/>
    <path d="m135.336-622.875 52 52" opacity=".91"/>
    <path d="m239.336-622.875-52 52" opacity=".54"/>
    <path d="m291.336-622.875-52 52" opacity=".69"/>
    <path d="m291.336-622.875 52 52" opacity=".31"/>
    <path d="m343.336-622.875 52 52" opacity=".7"/>
    <path d="m395.336-622.875 52 52" opacity=".99"/>
    <path d="m499.336-622.875-52 52" opacity=".18"/>
    <path d="m499.336-622.875 52 52" opacity=".75"/>
    <path d="m-280.664-570.875 52 52" opacity=".38"/>
    <path d="m-176.664-570.875-52 52" opacity=".39"/>
    <path d="m-176.664-570.875 52 52" opacity=".33"/>
    <path d="m-72.664-570.875-52 52" opacity=".81"/>
    <path d="m-72.664-570.875 52 52" opacity=".65"/>
    <path d="m-20.664-570.875 52 52" opacity=".54"/>
    <path d="m31.336-570.875 52 52" opacity=".86"/>
    <path d="m83.336-570.875 52 52" opacity=".67"/>
    <path d="m135.336-570.875 52 52" opacity=".58"/>
    <path d="m239.336-570.875-52 52" opacity=".14"/>
    <path d="m239.336-570.875 52 52" opacity=".78"/>
    <path d="m343.336-570.875-52 52" opacity=".41"/>
    <path d="m395.336-570.875-52 52" opacity=".53"/>
    <path d="m447.336-570.875-52 52" opacity=".76"/>
    <path d="m499.336-570.875-52 52" opacity=".39"/>
    <path d="m551.336-570.875-52 52" opacity=".44"/>
    <path d="m-280.664-518.875 52 52" opacity=".33"/>
    <path d="m-176.664-518.875-52 52" opacity=".68"/>
    <path d="m-176.664-518.875 52 52" opacity=".3"/>
    <path d="m-124.664-518.875 52 52" opacity=".29"/>
    <path d="m-20.664-518.875-52 52" opacity=".26"/>
    <path d="m31.336-518.875-52 52" opacity=".82"/>
    <path d="m83.336-518.875-52 52" opacity=".98"/>
    <path d="m83.336-518.875 52 52" opacity=".9"/>
    <path d="m187.336-518.875-52 52" opacity=".99"/>
    <path d="m187.336-518.875 52 52" opacity=".14"/>
    <path d="m291.336-518.875-52 52" opacity=".66"/>
    <path d="m343.336-518.875-52 52" opacity=".56"/>
    <path d="m343.336-518.875 52 52" opacity=".74"/>
    <path d="m447.336-518.875-52 52" opacity=".5"/>
    <path d="m499.336-518.875-52 52" opacity=".95"/>
    <path d="m499.336-518.875 52 52" opacity=".41"/>
    <path d="m-280.664-466.875 52 52" opacity=".83"/>
    <path d="m-228.664-466.875 52 52" opacity=".43"/>
    <path d="m-176.664-466.875 52 52" opacity=".71"/>
    <path d="m-124.664-466.875 52 52" opacity=".37"/>
    <path d="m-72.664-466.875 52 52" opacity=".1"/>
    <path d="m31.336-466.875-52 52" opacity=".7"/>
    <path d="m83.336-466.875-52 52" opacity=".89"/>
    <path d="m83.336-466.875 52 52" opacity=".33"/>
    <path d="m187.336-466.875-52 52" opacity=".48"/>
    <path d="m239.336-466.875-52 52" opacity=".92"/>
    <path d="m291.336-466.875-52 52" opacity=".17"/>
    <path d="m343.336-466.875-52 52" opacity=".69"/>
    <path d="m395.336-466.875-52 52" opacity=".26"/>
    <path d="m447.336-466.875-52 52" opacity=".38"/>
    <path d="m447.336-466.875 52 52" opacity=".23"/>
    <path d="m551.336-466.875-52 52" opacity=".81"/>
  </g>
  <g fill="none" stroke="rgb(2 132 199 / 1)" stroke-linecap="round" stroke-width="2">
    <path d="m603.339-1246.849-52 52" opacity=".97"/>
    <path d="m655.339-1246.849-52 52" opacity=".3"/>
    <path d="m655.339-1246.849 52 52" opacity=".12"/>
    <path d="m707.339-1246.849 52 52" opacity=".18"/>
    <path d="m759.339-1246.849 52 52" opacity=".31"/>
    <path d="m811.339-1246.849 52 52" opacity=".45"/>
    <path d="m863.339-1246.849 52 52" opacity=".2"/>
    <path d="m967.339-1246.849-52 52" opacity=".8"/>
    <path d="m1019.339-1246.849-52 52" opacity=".81"/>
    <path d="m1071.339-1246.849-52 52" opacity=".44"/>
    <path d="m1071.339-1246.849 52 52" opacity=".66"/>
    <path d="m1175.339-1246.849-52 52" opacity=".52"/>
    <path d="m1175.339-1246.849 52 52" opacity=".76"/>
    <path d="m1279.339-1246.849-52 52" opacity=".23"/>
    <path d="m1331.339-1246.849-52 52" opacity=".66"/>
    <path d="m1383.339-1246.849-52 52" opacity=".65"/>
    <path d="m603.339-1194.849-52 52" opacity=".56"/>
    <path d="m603.339-1194.849 52 52" opacity=".24"/>
    <path d="m655.339-1194.849 52 52" opacity=".42"/>
    <path d="m759.339-1194.849-52 52" opacity=".47"/>
    <path d="m759.339-1194.849 52 52" opacity=".38"/>
    <path d="m811.339-1194.849 52 52" opacity=".32"/>
    <path d="m915.339-1194.849-52 52" opacity=".26"/>
    <path d="m967.339-1194.849-52 52" opacity=".96"/>
    <path d="m1019.339-1194.849-52 52" opacity=".92"/>
    <path d="m1019.339-1194.849 52 52" opacity=".95"/>
    <path d="m1071.339-1194.849 52 52" opacity=".32"/>
    <path d="m1175.339-1194.849-52 52" opacity=".41"/>
    <path d="m1175.339-1194.849 52 52" opacity=".75"/>
    <path d="m1279.339-1194.849-52 52" opacity=".23"/>
    <path d="m1279.339-1194.849 52 52" opacity=".6"/>
    <path d="m1383.339-1194.849-52 52" opacity=".37"/>
    <path d="m551.339-1142.849 52 52" opacity=".43"/>
    <path d="m603.339-1142.849 52 52" opacity=".69"/>
    <path d="m707.339-1142.849-52 52" opacity=".43"/>
    <path d="m707.339-1142.849 52 52" opacity=".86"/>
    <path d="m759.339-1142.849 52 52" opacity=".88"/>
    <path d="m863.339-1142.849-52 52" opacity=".8"/>
    <path d="m863.339-1142.849 52 52" opacity=".57"/>
    <path d="m967.339-1142.849-52 52" opacity=".2"/>
    <path d="m967.339-1142.849 52 52" opacity=".99"/>
    <path d="m1019.339-1142.849 52 52" opacity=".23"/>
    <path d="m1071.339-1142.849 52 52" opacity=".19"/>
    <path d="m1175.339-1142.849-52 52" opacity=".43"/>
    <path d="m1227.339-1142.849-52 52" opacity=".84"/>
    <path d="m1227.339-1142.849 52 52" opacity=".38"/>
    <path d="m1331.339-1142.849-52 52" opacity=".68"/>
    <path d="m1331.339-1142.849 52 52" opacity=".98"/>
    <path d="m551.339-1090.849 52 52" opacity=".58"/>
    <path d="m655.339-1090.849-52 52" opacity=".13"/>
    <path d="m707.339-1090.849-52 52" opacity=".73"/>
    <path d="m707.339-1090.849 52 52" opacity=".36"/>
    <path d="m759.339-1090.849 52 52" opacity=".65"/>
    <path d="m811.339-1090.849 52 52" opacity=".94"/>
    <path d="m863.339-1090.849 52 52" opacity=".19"/>
    <path d="m915.339-1090.849 52 52" opacity=".36"/>
    <path d="m1019.339-1090.849-52 52" opacity=".93"/>
    <path d="m1071.339-1090.849-52 52" opacity=".55"/>
    <path d="m1123.339-1090.849-52 52" opacity=".34"/>
    <path d="m1175.339-1090.849-52 52" opacity=".92"/>
    <path d="m1175.339-1090.849 52 52" opacity=".45"/>
    <path d="m1279.339-1090.849-52 52" opacity=".47"/>
    <path d="m1279.339-1090.849 52 52" opacity=".3"/>
    <path d="m1383.339-1090.849-52 52" opacity=".15"/>
    <path d="m603.339-1038.849-52 52" opacity=".08"/>
    <path d="m603.339-1038.849 52 52" opacity=".45"/>
    <path d="m707.339-1038.849-52 52" opacity=".39"/>
    <path d="m759.339-1038.849-52 52" opacity=".64"/>
    <path d="m759.339-1038.849 52 52" opacity=".9"/>
    <path d="m863.339-1038.849-52 52" opacity=".21"/>
    <path d="m863.339-1038.849 52 52" opacity=".36"/>
    <path d="m915.339-1038.849 52 52" opacity=".81"/>
    <path d="m1019.339-1038.849-52 52" opacity=".77"/>
    <path d="m1071.339-1038.849-52 52" opacity=".58"/>
    <path d="m1071.339-1038.849 52 52" opacity=".56"/>
    <path d="m1175.339-1038.849-52 52" opacity=".72"/>
    <path d="m1175.339-1038.849 52 52" opacity=".25"/>
    <path d="m1279.339-1038.849-52 52" opacity=".32"/>
    <path d="m1279.339-1038.849 52 52" opacity=".4"/>
    <path d="m1383.339-1038.849-52 52" opacity=".58"/>
    <path d="m551.339-986.849 52 52" opacity=".68"/>
    <path d="m655.339-986.849-52 52" opacity=".89"/>
    <path d="m655.339-986.849 52 52" opacity=".46"/>
    <path d="m707.339-986.849 52 52" opacity=".34"/>
    <path d="m811.339-986.849-52 52" opacity=".26"/>
    <path d="m863.339-986.849-52 52" opacity=".39"/>
    <path d="m863.339-986.849 52 52" opacity=".26"/>
    <path d="m967.339-986.849-52 52" opacity=".75"/>
    <path d="m967.339-986.849 52 52" opacity=".82"/>
    <path d="m1071.339-986.849-52 52" opacity=".26"/>
    <path d="m1123.339-986.849-52 52" opacity=".79"/>
    <path d="m1175.339-986.849-52 52" opacity=".5"/>
    <path d="m1175.339-986.849 52 52" opacity=".1"/>
    <path d="m1227.339-986.849 52 52" opacity=".74"/>
    <path d="m1279.339-986.849 52 52" opacity=".57"/>
    <path d="m1383.339-986.849-52 52" opacity=".24"/>
    <path d="m551.339-934.849 52 52" opacity=".96"/>
    <path d="m603.339-934.849 52 52" opacity=".77"/>
    <path d="m707.339-934.849-52 52" opacity=".66"/>
    <path d="m759.339-934.849-52 52"/>
    <path d="m759.339-934.849 52 52" opacity=".9"/>
    <path d="m863.339-934.849-52 52" opacity=".95"/>
    <path d="m915.339-934.849-52 52" opacity=".83"/>
    <path d="m915.339-934.849 52 52" opacity=".73"/>
    <path d="m967.339-934.849 52 52" opacity=".24"/>
    <path d="m1071.339-934.849-52 52" opacity=".47"/>
    <path d="m1071.339-934.849 52 52" opacity=".52"/>
    <path d="m1123.339-934.849 52 52" opacity=".49"/>
    <path d="m1175.339-934.849 52 52" opacity=".28"/>
    <path d="m1279.339-934.849-52 52" opacity=".54"/>
    <path d="m1331.339-934.849-52 52" opacity=".9"/>
    <path d="m1331.339-934.849 52 52" opacity=".69"/>
    <path d="m603.339-882.849-52 52" opacity=".18"/>
    <path d="m655.339-882.849-52 52" opacity=".53"/>
    <path d="m655.339-882.849 52 52" opacity=".07"/>
    <path d="m707.339-882.849 52 52" opacity=".95"/>
    <path d="m759.339-882.849 52 52" opacity=".92"/>
    <path d="m811.339-882.849 52 52" opacity=".12"/>
    <path d="m915.339-882.849-52 52" opacity=".35"/>
    <path d="m915.339-882.849 52 52" opacity=".96"/>
    <path d="m967.339-882.849 52 52" opacity=".65"/>
    <path d="m1019.339-882.849 52 52" opacity=".86"/>
    <path d="m1123.339-882.849-52 52" opacity=".54"/>
    <path d="m1123.339-882.849 52 52" opacity=".26"/>
    <path d="m1227.339-882.849-52 52" opacity=".24"/>
    <path d="m1227.339-882.849 52 52" opacity=".32"/>
    <path d="m1279.339-882.849 52 52" opacity=".45"/>
    <path d="m1331.339-882.849 52 52" opacity=".84"/>
    <path d="m551.339-830.849 52 52" opacity=".71"/>
    <path d="m603.339-830.849 52 52" opacity=".93"/>
    <path d="m707.339-830.849-52 52" opacity=".72"/>
    <path d="m759.339-830.849-52 52" opacity=".83"/>
    <path d="m759.339-830.849 52 52" opacity=".8"/>
    <path d="m863.339-830.849-52 52" opacity=".21"/>
    <path d="m863.339-830.849 52 52" opacity=".4"/>
    <path d="m915.339-830.849 52 52" opacity=".21"/>
    <path d="m1019.339-830.849-52 52" opacity=".65"/>
    <path d="m1019.339-830.849 52 52" opacity=".81"/>
    <path d="m1123.339-830.849-52 52" opacity=".37"/>
    <path d="m1175.339-830.849-52 52" opacity=".93"/>
    <path d="m1175.339-830.849 52 52" opacity=".73"/>
    <path d="m1279.339-830.849-52 52" opacity=".81"/>
    <path d="m1331.339-830.849-52 52" opacity=".38"/>
    <path d="m1331.339-830.849 52 52" opacity=".62"/>
    <path d="m603.339-778.849-52 52" opacity=".63"/>
    <path d="m655.339-778.849-52 52" opacity=".34"/>
    <path d="m655.339-778.849 52 52" opacity=".47"/>
    <path d="m759.339-778.849-52 52" opacity=".97"/>
    <path d="m759.339-778.849 52 52" opacity=".91"/>
    <path d="m863.339-778.849-52 52" opacity=".45"/>
    <path d="m863.339-778.849 52 52" opacity=".6"/>
    <path d="m915.339-778.849 52 52" opacity=".63"/>
    <path d="m1019.339-778.849-52 52" opacity=".94"/>
    <path d="m1019.339-778.849 52 52" opacity=".13"/>
    <path d="m1071.339-778.849 52 52" opacity=".89"/>
    <path d="m1175.339-778.849-52 52" opacity=".18"/>
    <path d="m1175.339-778.849 52 52" opacity=".76"/>
    <path d="m1227.339-778.849 52 52" opacity=".12"/>
    <path d="m1279.339-778.849 52 52" opacity=".4"/>
    <path d="m1331.339-778.849 52 52" opacity=".91"/>
    <path d="m603.339-726.849-52 52" opacity=".85"/>
    <path d="m655.339-726.849-52 52" opacity=".42"/>
    <path d="m707.339-726.849-52 52" opacity=".56"/>
    <path d="m707.339-726.849 52 52" opacity=".81"/>
    <path d="m759.339-726.849 52 52" opacity=".99"/>
    <path d="m811.339-726.849 52 52" opacity=".51"/>
    <path d="m915.339-726.849-52 52" opacity=".15"/>
    <path d="m967.339-726.849-52 52" opacity=".5"/>
    <path d="m967.339-726.849 52 52" opacity=".65"/>
    <path d="m1019.339-726.849 52 52" opacity=".53"/>
    <path d="m1123.339-726.849-52 52" opacity=".74"/>
    <path d="m1123.339-726.849 52 52" opacity=".4"/>
    <path d="m1227.339-726.849-52 52" opacity=".82"/>
    <path d="m1227.339-726.849 52 52" opacity=".21"/>
    <path d="m1279.339-726.849 52 52" opacity=".67"/>
    <path d="m1383.339-726.849-52 52" opacity=".45"/>
    <path d="m603.339-674.849-52 52" opacity=".78"/>
    <path d="m603.339-674.849 52 52" opacity=".62"/>
    <path d="m655.339-674.849 52 52" opacity=".79"/>
    <path d="m759.339-674.849-52 52" opacity=".2"/>
    <path d="m759.339-674.849 52 52" opacity=".16"/>
    <path d="m811.339-674.849 52 52" opacity=".09"/>
    <path d="m915.339-674.849-52 52" opacity=".57"/>
    <path d="m967.339-674.849-52 52" opacity=".52"/>
    <path d="m1019.339-674.849-52 52" opacity=".15"/>
    <path d="m1071.339-674.849-52 52" opacity=".17"/>
    <path d="m1071.339-674.849 52 52" opacity=".11"/>
    <path d="m1175.339-674.849-52 52" opacity=".15"/>
    <path d="m1227.339-674.849-52 52" opacity=".16"/>
    <path d="m1279.339-674.849-52 52" opacity=".59"/>
    <path d="m1279.339-674.849 52 52" opacity=".73"/>
    <path d="m1331.339-674.849 52 52" opacity=".6"/>
    <path d="m603.339-622.849-52 52" opacity=".72"/>
    <path d="m603.339-622.849 52 52" opacity=".98"/>
    <path d="m707.339-622.849-52 52" opacity=".35"/>
    <path d="m759.339-622.849-52 52" opacity=".5"/>
    <path d="m759.339-622.849 52 52" opacity=".19"/>
    <path d="m811.339-622.849 52 52" opacity=".68"/>
    <path d="m863.339-622.849 52 52" opacity=".19"/>
    <path d="m915.339-622.849 52 52" opacity=".41"/>
    <path d="m967.339-622.849 52 52" opacity=".91"/>
    <path d="m1071.339-622.849-52 52" opacity=".54"/>
    <path d="m1123.339-622.849-52 52" opacity=".69"/>
    <path d="m1123.339-622.849 52 52" opacity=".31"/>
    <path d="m1175.339-622.849 52 52" opacity=".7"/>
    <path d="m1227.339-622.849 52 52" opacity=".99"/>
    <path d="m1331.339-622.849-52 52" opacity=".18"/>
    <path d="m1331.339-622.849 52 52" opacity=".75"/>
    <path d="m551.339-570.849 52 52" opacity=".38"/>
    <path d="m655.339-570.849-52 52" opacity=".39"/>
    <path d="m655.339-570.849 52 52" opacity=".33"/>
    <path d="m759.339-570.849-52 52" opacity=".81"/>
    <path d="m759.339-570.849 52 52" opacity=".65"/>
    <path d="m811.339-570.849 52 52" opacity=".54"/>
    <path d="m863.339-570.849 52 52" opacity=".86"/>
    <path d="m915.339-570.849 52 52" opacity=".67"/>
    <path d="m967.339-570.849 52 52" opacity=".58"/>
    <path d="m1071.339-570.849-52 52" opacity=".14"/>
    <path d="m1071.339-570.849 52 52" opacity=".78"/>
    <path d="m1175.339-570.849-52 52" opacity=".41"/>
    <path d="m1227.339-570.849-52 52" opacity=".53"/>
    <path d="m1279.339-570.849-52 52" opacity=".76"/>
    <path d="m1331.339-570.849-52 52" opacity=".39"/>
    <path d="m1383.339-570.849-52 52" opacity=".44"/>
    <path d="m551.339-518.849 52 52" opacity=".33"/>
    <path d="m655.339-518.849-52 52" opacity=".68"/>
    <path d="m655.339-518.849 52 52" opacity=".3"/>
    <path d="m707.339-518.849 52 52" opacity=".29"/>
    <path d="m811.339-518.849-52 52" opacity=".26"/>
    <path d="m863.339-518.849-52 52" opacity=".82"/>
    <path d="m915.339-518.849-52 52" opacity=".98"/>
    <path d="m915.339-518.849 52 52" opacity=".9"/>
    <path d="m1019.339-518.849-52 52" opacity=".99"/>
    <path d="m1019.339-518.849 52 52" opacity=".14"/>
    <path d="m1123.339-518.849-52 52" opacity=".66"/>
    <path d="m1175.339-518.849-52 52" opacity=".56"/>
    <path d="m1175.339-518.849 52 52" opacity=".74"/>
    <path d="m1279.339-518.849-52 52" opacity=".5"/>
    <path d="m1331.339-518.849-52 52" opacity=".95"/>
    <path d="m1331.339-518.849 52 52" opacity=".41"/>
    <path d="m551.339-466.849 52 52" opacity=".83"/>
    <path d="m603.339-466.849 52 52" opacity=".43"/>
    <path d="m655.339-466.849 52 52" opacity=".71"/>
    <path d="m707.339-466.849 52 52" opacity=".37"/>
    <path d="m759.339-466.849 52 52" opacity=".1"/>
    <path d="m863.339-466.849-52 52" opacity=".7"/>
    <path d="m915.339-466.849-52 52" opacity=".89"/>
    <path d="m915.339-466.849 52 52" opacity=".33"/>
    <path d="m1019.339-466.849-52 52" opacity=".48"/>
    <path d="m1071.339-466.849-52 52" opacity=".92"/>
    <path d="m1123.339-466.849-52 52" opacity=".17"/>
    <path d="m1175.339-466.849-52 52" opacity=".69"/>
    <path d="m1227.339-466.849-52 52" opacity=".26"/>
    <path d="m1279.339-466.849-52 52" opacity=".38"/>
    <path d="m1279.339-466.849 52 52" opacity=".23"/>
    <path d="m1383.339-466.849-52 52" opacity=".81"/>
  </g>
</svg>